PathFileType        4      (X/Y/Z)      C:\Users\u0101727\OneDrive - KU Leuven\reference_data\TRC\gait_63.trc         																																																																																																																																																																																		
DataRate	CameraRate	NumFrames	NumMarkers	Units	OrigDataRate	OrigDataStartFrame	OrigNumFrames																																																																																																																																																																											
100	100	4	59	m	100	326	520																																																																																																																																																																											
Frame#	Time	LPSI			RPSI			LKNE			LTHI1			LTHI2			LTHI3			LANK			LTIB1			LTIB2			LTIB3			foot_l3			foot_l4			foot_l6			RANK_med			RTIB2			RTIB3			Foot_r2			Foot_r3			Foot_r5			Foot_r6			Foot_r7			Foot_r8			Foot_r9			Foot_r10			RSHO			LSHO			hum_l2			LELB			rad_l2			LW2			LH			hum_r2			RELB			rad_r2			foot_l2			foot_l7			foot_l1			foot_l5			RANK			RTHI3			Foot_r1			RW1			RH			foot_l9			foot_l8			foot_l10			LANK_med			RW2			RASI			Foot_r4			RTHI1			CLAV			RKNE			RTHI2			RTIB1			LW1			RKNE_med			LKNE_med			LASI		
		X1	Y1	Z1	X2	Y2	Z2	X3	Y3	Z3	X4	Y4	Z4	X5	Y5	Z5	X6	Y6	Z6	X7	Y7	Z7	X8	Y8	Z8	X9	Y9	Z9	X10	Y10	Z10	X11	Y11	Z11	X12	Y12	Z12	X13	Y13	Z13	X14	Y14	Z14	X15	Y15	Z15	X16	Y16	Z16	X17	Y17	Z17	X18	Y18	Z18	X19	Y19	Z19	X20	Y20	Z20	X21	Y21	Z21	X22	Y22	Z22	X23	Y23	Z23	X24	Y24	Z24	X25	Y25	Z25	X26	Y26	Z26	X27	Y27	Z27	X28	Y28	Z28	X29	Y29	Z29	X30	Y30	Z30	X31	Y31	Z31	X32	Y32	Z32	X33	Y33	Z33	X34	Y34	Z34	X35	Y35	Z35	X36	Y36	Z36	X37	Y37	Z37	X38	Y38	Z38	X39	Y39	Z39	X40	Y40	Z40	X41	Y41	Z41	X42	Y42	Z42	X43	Y43	Z43	X44	Y44	Z44	X45	Y45	Z45	X46	Y46	Z46	X47	Y47	Z47	X48	Y48	Z48	X49	Y49	Z49	X50	Y50	Z50	X51	Y51	Z51	X52	Y52	Z52	X53	Y53	Z53	X54	Y54	Z54	X55	Y55	Z55	X56	Y56	Z56	X57	Y57	Z57	X58	Y58	Z58	X59	Y59	Z59
326	3.26	2.5108	0.95108	0.31708	2.5135	0.94779	0.36423	2.8125	0.47557	0.22013	NaN	NaN	NaN	2.7532	0.68927	0.15733	NaN	NaN	NaN	2.7895	0.081766	0.23273	NaN	NaN	NaN	2.7532	0.27844	0.20015	NaN	NaN	NaN	NaN	NaN	NaN	2.8332	0.044073	0.22907	NaN	NaN	NaN	2.4424	0.089118	0.33627	2.4306	0.27781	0.46468	2.4645	0.23082	0.45801	2.3679	0.039169	0.37882	NaN	NaN	NaN	2.5248	0.017462	0.45105	NaN	NaN	NaN	NaN	NaN	NaN	NaN	NaN	NaN	NaN	NaN	NaN	2.4482	0.054254	0.33726	2.6066	1.3731	0.52492	2.5779	1.3764	0.17312	2.5408	1.2223	0.12242	2.492	1.0599	0.12203	2.5449	0.96072	0.078699	2.5325	0.84356	0.051655	2.5692	0.77868	0.046612	2.6003	1.2193	0.56454	2.5988	1.0685	0.59125	2.7089	0.95645	0.61732	2.7356	0.027231	0.27826	NaN	NaN	NaN	2.7348	0.060074	0.27975	NaN	NaN	NaN	2.4213	0.069614	0.41746	NaN	NaN	NaN	NaN	NaN	NaN	NaN	NaN	NaN	NaN	NaN	NaN	NaN	NaN	NaN	NaN	NaN	NaN	NaN	NaN	NaN	NaN	NaN	NaN	2.7384	0.8763	0.63547	NaN	NaN	NaN	NaN	NaN	NaN	NaN	NaN	NaN	NaN	NaN	NaN	NaN	NaN	NaN	NaN	NaN	NaN	NaN	NaN	NaN	NaN	NaN	NaN	NaN	NaN	NaN	NaN	NaN	NaN	NaN	NaN	NaN
327	3.27	2.5234	0.94877	0.31667	2.5255	0.94618	0.36357	2.8258	0.47455	0.21978	NaN	NaN	NaN	2.766	0.68798	0.15729	NaN	NaN	NaN	2.8281	0.081328	0.23141	NaN	NaN	NaN	2.7781	0.2753	0.19951	NaN	NaN	NaN	NaN	NaN	NaN	2.8749	0.046628	0.2274	NaN	NaN	NaN	2.4439	0.089885	0.33628	2.4326	0.27974	0.46381	2.4665	0.23224	0.45748	2.3681	0.041305	0.37797	NaN	NaN	NaN	2.5241	0.017504	0.45073	NaN	NaN	NaN	NaN	NaN	NaN	NaN	NaN	NaN	NaN	NaN	NaN	2.448	0.056	0.33604	2.6201	1.3711	0.52458	2.5902	1.3744	0.17281	2.5522	1.2204	0.12232	2.5024	1.0579	0.12269	2.5529	0.95866	0.078733	2.5383	0.84215	0.052161	2.5745	0.77675	0.045843	2.6146	1.2176	0.5646	2.6148	1.0667	0.59199	2.7267	0.95685	0.61679	2.7791	0.022476	0.27683	NaN	NaN	NaN	2.7747	0.057026	0.27797	NaN	NaN	NaN	2.4217	0.07113	0.41706	NaN	NaN	NaN	NaN	NaN	NaN	NaN	NaN	NaN	NaN	NaN	NaN	NaN	NaN	NaN	NaN	NaN	NaN	NaN	NaN	NaN	NaN	NaN	NaN	2.7591	0.87778	0.63467	NaN	NaN	NaN	NaN	NaN	NaN	NaN	NaN	NaN	NaN	NaN	NaN	NaN	NaN	NaN	NaN	NaN	NaN	NaN	NaN	NaN	NaN	NaN	NaN	NaN	NaN	NaN	NaN	NaN	NaN	NaN	NaN	NaN
328	3.28	2.5359	0.94608	0.31619	2.5382	0.94353	0.36302	2.8389	0.47304	0.21978	NaN	NaN	NaN	2.7782	0.68609	0.15732	NaN	NaN	NaN	2.8658	0.0826	0.22945	NaN	NaN	NaN	2.8027	0.27299	0.1985	NaN	NaN	NaN	NaN	NaN	NaN	2.9141	0.050487	0.22578	NaN	NaN	NaN	2.445	0.091051	0.33637	2.4356	0.28137	0.46321	2.4676	0.23325	0.45754	2.3684	0.043284	0.37772	NaN	NaN	NaN	2.5237	0.017508	0.45055	NaN	NaN	NaN	NaN	NaN	NaN	NaN	NaN	NaN	NaN	NaN	NaN	2.4481	0.057414	0.33576	2.6336	1.3692	0.52426	2.6027	1.3724	0.17251	2.5637	1.2187	0.12252	2.5125	1.0566	0.12273	2.5617	0.95643	0.07844	2.5456	0.83973	0.051731	2.5803	0.77431	0.045471	2.6287	1.2157	0.5645	2.6304	1.0645	0.59224	2.7438	0.95689	0.61642	2.8196	0.020879	0.27477	NaN	NaN	NaN	2.8134	0.054481	0.27598	NaN	NaN	NaN	2.422	0.072471	0.41654	NaN	NaN	NaN	NaN	NaN	NaN	NaN	NaN	NaN	NaN	NaN	NaN	NaN	NaN	NaN	NaN	NaN	NaN	NaN	NaN	NaN	NaN	NaN	NaN	2.7782	0.87882	0.63396	NaN	NaN	NaN	NaN	NaN	NaN	NaN	NaN	NaN	NaN	NaN	NaN	NaN	NaN	NaN	NaN	NaN	NaN	NaN	NaN	NaN	NaN	NaN	NaN	NaN	NaN	NaN	NaN	NaN	NaN	NaN	NaN	NaN
329	3.29	2.549	0.94356	0.31527	2.5507	0.94123	0.36228	2.8521	0.47119	0.21928	NaN	NaN	NaN	2.7904	0.68352	0.15738	NaN	NaN	NaN	2.9004	0.084348	0.22812	NaN	NaN	NaN	2.8268	0.27132	0.197	NaN	NaN	NaN	NaN	NaN	NaN	2.9504	0.055071	0.22453	NaN	NaN	NaN	2.4457	0.092478	0.33633	2.4395	0.28282	0.46312	2.4699	0.23434	0.45757	2.3684	0.045838	0.37769	NaN	NaN	NaN	2.5237	0.017634	0.45044	NaN	NaN	NaN	NaN	NaN	NaN	NaN	NaN	NaN	NaN	NaN	NaN	2.4489	0.058712	0.33646	2.647	1.3672	0.52378	2.6154	1.3703	0.17202	2.5753	1.2167	0.12219	2.5234	1.0552	0.12297	2.5709	0.95442	0.07818	2.5532	0.83791	0.051623	2.5865	0.77174	0.045166	2.6429	1.2139	0.56414	2.6456	1.0629	0.59275	2.7612	0.95721	0.61558	2.8577	0.020263	0.27284	NaN	NaN	NaN	2.8499	0.053253	0.27427	NaN	NaN	NaN	2.4224	0.074184	0.41679	NaN	NaN	NaN	NaN	NaN	NaN	NaN	NaN	NaN	NaN	NaN	NaN	NaN	NaN	NaN	NaN	NaN	NaN	NaN	NaN	NaN	NaN	NaN	NaN	2.7969	0.87988	0.6328	NaN	NaN	NaN	NaN	NaN	NaN	NaN	NaN	NaN	NaN	NaN	NaN	NaN	NaN	NaN	NaN	NaN	NaN	NaN	NaN	NaN	NaN	NaN	NaN	NaN	NaN	NaN	NaN	NaN	NaN	NaN	NaN	NaN
